<svg width="31" height="11" viewBox="0 0 31 11" fill="none" xmlns="http://www.w3.org/2000/svg">
<path d="M1.03804 4.48639C3.37746 3.17018 9.32722 1.27903 14.411 4.24404C19.4947 7.20906 25.2587 5.32127 27.5053 4.00674" stroke="#FFF7E9" stroke-width="2" stroke-linecap="round" stroke-linejoin="round"/>
<path d="M22.4087 0.583804C21.9007 0.371557 21.306 0.609691 21.0803 1.11569C20.8546 1.62169 21.0834 2.20395 21.5913 2.4162L22.4087 0.583804ZM28.8027 4.34254L29.4871 5.05666L30.6061 4.00914L29.2114 3.42635L28.8027 4.34254ZM22.5326 8.85727C22.1251 9.23876 22.1011 9.86774 22.4791 10.2621C22.8571 10.6565 23.4939 10.667 23.9014 10.2855L22.5326 8.85727ZM21.5913 2.4162L28.3941 5.25874L29.2114 3.42635L22.4087 0.583804L21.5913 2.4162ZM28.1183 3.62842L22.5326 8.85727L23.9014 10.2855L29.4871 5.05666L28.1183 3.62842Z" fill="#FFF7E9"/>
</svg>
